<?xml version="1.0" encoding="UTF-8"?>
<svg id="Capa_1" xmlns="http://www.w3.org/2000/svg" version="1.1" viewBox="0 0 512 240.8">
  <!-- Generator: Adobe Illustrator 29.0.0, SVG Export Plug-In . SVG Version: 2.1.0 Build 186)  -->
  <defs>
    <style>
      .st0 {
        fill: #fff;
      }
    </style>
  </defs>
  <path class="st0" d="M503.9,101L409.6,8c-7.9-7.9-19.8-10.2-30.1-5.8-10.2,4.1-16.9,14.1-16.8,25.2v82.4H10.7c-5.9,0-10.7,4.8-10.7,10.7s4.8,10.7,10.7,10.7h352v82.4c0,11.2,6.4,20.8,16.8,25.2,10.3,4.4,22.2,2.1,30.1-5.8l94.3-93c5.2-5.2,8.1-12,8.1-19.4s-2.9-14.2-8.1-19.4h0v-.2ZM488.9,124.5l-94.2,93c-1.8,1.8-4.6,2.4-6.9,1.3-2.3-.9-3.8-3.1-3.7-5.5V27.3c0-3.5,2.6-5,3.7-5.5.8-.4,1.7-.5,2.6-.5,1.3,0,2.9.4,4.3,1.8l94.3,93c2.3,2.2,2.4,6,.1,8.3h-.1c0,0-.1,0-.1,0Z"/>
</svg>