<?xml version="1.0" encoding="UTF-8"?>
<svg id="Capa_1" xmlns="http://www.w3.org/2000/svg" version="1.1" viewBox="0 0 290.6 512">
  <!-- Generator: Adobe Illustrator 29.0.0, SVG Export Plug-In . SVG Version: 2.1.0 Build 186)  -->
  <defs>
    <style>
      .st0 {
        fill: #21758d;
      }
    </style>
  </defs>
  <path class="st0" d="M179.5,512h-82c-13.7,0-24.8-11.1-24.8-24.8v-184.9H24.8c-13.7,0-24.8-11.1-24.8-24.8v-79.2c0-13.7,11.1-24.8,24.8-24.8h47.8v-39.7c0-39.3,12.4-72.8,35.7-96.8C131.9,12.7,164.7,0,203.3,0h62.5c13.7.1,24.8,11.3,24.8,24.9v73.6c0,13.7-11.1,24.8-24.8,24.8h-42.1c-12.8,0-16.1,2.6-16.8,3.4-1.2,1.3-2.5,5-2.5,15.2v31.4h58.3c4.4,0,8.6,1.1,12.3,3.1,7.9,4.4,12.8,12.7,12.8,21.7v79.2c0,13.7-11.2,24.8-24.9,24.8h-58.5v184.9c0,13.7-11.1,24.8-24.8,24.8ZM102.7,482h71.6v-193.2c0-9.1,7.4-16.6,16.6-16.6h66.7v-68.9s-66.7,0-66.7,0c-9.1,0-16.6-7.4-16.6-16.6v-44.8c0-11.7,1.2-25.1,10-35.1,10.7-12.1,27.6-13.5,39.3-13.5h36.9V30.1h-57.3c-62,0-100.6,39.6-100.6,103.5v53.1c0,9.1-7.4,16.6-16.6,16.6H30v68.9h56.1c9.1,0,16.6,7.4,16.6,16.6v193.2ZM265.8,30.1h0,0Z"/>
</svg>