<?xml version="1.0" encoding="UTF-8"?>
<svg id="Capa_1" xmlns="http://www.w3.org/2000/svg" version="1.1" viewBox="0 0 90 90">
  <!-- Generator: Adobe Illustrator 29.0.0, SVG Export Plug-In . SVG Version: 2.1.0 Build 186)  -->
  <defs>
    <style>
      .st0 {
        fill: none;
        stroke: #217287;
        stroke-linecap: round;
        stroke-linejoin: round;
        stroke-width: 2px;
      }

      .st1 {
        isolation: isolate;
        opacity: .5;
      }

      .st1, .st2 {
        fill: #217287;
      }

      .st3 {
        fill: #dbe5e8;
      }
    </style>
  </defs>
  <path class="st3" d="M28.9,8.7c-7.2,0-14.7,2.1-19.7,7.2-7.8,7.9-7.8,21.1-3,31.2s13.5,17.6,21.9,24.9c6.2,5.3,13.9,11.1,21.8,8.7,4.3-1.3,7.5-4.8,10.5-8.1,6.9-7.6,13.8-15.3,20.7-22.9,2.8-3.1,5.7-6.5,6.1-10.6.5-5.4-3.6-10.3-8.4-12.9s-10.3-3.3-15.5-4.9c-13.2-3.9-18.6-12.6-34.3-12.6h0Z"/>
  <path class="st2" d="M57.1,35.2c0,4.3-2.2,8-5.6,10.2-.4-.4-.8-.8-1.2-1.1-1.6-1.1-3.5-1.7-5.4-1.7s-3.8.6-5.3,1.7c-.5.3-.9.7-1.2,1-3.3-2.2-5.4-5.9-5.4-10.1,0-6.7,5.4-12.1,12.1-12.1s12.1,5.4,12.1,12.1Z"/>
  <circle class="st1" cx="70.7" cy="20.4" r="9.4"/>
  <path class="st2" d="M61.6,34.2h0c-.5,0-.9-.4-1-.9-1-8.1-8.2-14.3-16.7-13.7s-14.5,7.4-14.7,15.4c-.1,5.6,2.7,10.5,7,13.4.8.6,1.7,1,2.7,1.4.5-1.2,1.3-2.3,2.3-3,1-.7,2.3-1.1,3.6-1.1s2.6.4,3.7,1.2c1.1.8,1.9,1.8,2.3,3,.2.6.4,1.3.4,2h0c0,3.6-2.8,6.5-6.3,6.5s-6.4-2.8-6.4-6.4,0-.2,0-.2c-1-.4-2-.9-2.8-1.4-5.1-3.1-8.5-8.7-8.5-15.1,0-9.8,8-17.8,17.8-17.8s16.5,6.8,17.6,15.5c0,.6-.4,1.2-1,1.2Z"/>
  <polyline class="st0" points="70.7 14.4 70.7 20.4 73.4 23"/>
  <path class="st2" d="M35.2,54.3c2.4,2.8,4.7,6.3,8.3,6.7,7.1.8,11.5-10.9,18.3-9,4.2,1.2,5.2,7.3,2.7,10.9s-7,5.2-11.2,6.4c-7,2-14.8,3.3-21.4.2-12.1-5.8-7-26.8,3.2-15.2Z"/>
</svg>