<?xml version="1.0" encoding="UTF-8"?>
<svg id="Capa_1" xmlns="http://www.w3.org/2000/svg" version="1.1" viewBox="0 0 90 90">
  <!-- Generator: Adobe Illustrator 29.0.0, SVG Export Plug-In . SVG Version: 2.1.0 Build 186)  -->
  <defs>
    <style>
      .st0 {
        fill: #217287;
      }

      .st1 {
        fill: #dbe5e8;
      }
    </style>
  </defs>
  <path class="st1" d="M5.6,20.4c-5.3,9.5-4.2,21.7.8,31.4,4.9,9.7,13.2,17.3,22,23.8,5.7,4.2,12.4,8.2,19.4,7.2,7.4-1.1,12.8-7.3,17.4-13.2,6.2-7.7,12.3-15.4,18.5-23.1,1.9-2.3,3.8-4.8,4.2-7.8.5-3.7-1.7-7.4-4.6-9.8s-6.5-3.7-10.1-4.9C54,17.1,20.3-3.9,5.6,20.4Z"/>
  <path class="st0" d="M75.1,26.8c3,16.8-10.6,31.3-27.2,29.9-12.2-1.1-22-11.1-22.9-23.3-.2-2.9,0-5.7.8-8.3,0,2.5.4,5,1.3,7.5,1.3,4.2,5,7.6,9.4,8.4,7.3,1.5,15.8-2.8,21.7-8.2l-.5,8.6c0,1.4,1,2.5,2.4,2.6h.1c1.3,0,2.4-1,2.5-2.4l.8-14.4c0-.7-.2-1.4-.7-1.9-.5-.5-1.1-.8-1.8-.8h-13.7c-1.3,0-2.5.9-2.6,2.2-.2,1.5,1,2.8,2.5,2.8h8.4c-5.7,4.2-14.3,7.9-19.3,4.6-2.2-1.6-2.9-4.6-2.9-7.9.4-28.1,37.5-23.3,41.7.5h0Z"/>
</svg>