<?xml version="1.0" encoding="UTF-8"?>
<svg id="Capa_1" xmlns="http://www.w3.org/2000/svg" version="1.1" viewBox="0 0 90 90">
  <!-- Generator: Adobe Illustrator 29.0.0, SVG Export Plug-In . SVG Version: 2.1.0 Build 186)  -->
  <defs>
    <style>
      .st0 {
        fill: none;
        stroke: #217287;
        stroke-miterlimit: 10;
      }

      .st1 {
        fill: #217287;
      }

      .st2 {
        fill: #dbe5e8;
      }
    </style>
  </defs>
  <path class="st2" d="M31.7,8.8c-9.4-1.2-19.7,1.1-25.9,8.3C-1.5,25.5-1.2,38.7,3.8,48.7c5,10,13.7,17.6,22.4,24.6,5.6,4.5,12.2,9.2,19.3,8,6.3-1.1,10.8-6.4,14.8-11.3,6.1-7.6,12.2-15.3,18.3-22.9,1.7-2.1,3.4-4.2,4.1-6.8,1.7-5.9-2.1-12.2-7.4-15.3-5.7-3.4-12.9-4.1-18.9-6.7-8.3-3.6-15.4-8.2-24.8-9.5h0Z"/>
  <polygon class="st0" points="87.3 53.8 74.2 53.8 74.2 43 79.2 43 87.3 53.8"/>
  <path class="st1" d="M89.8,53.1l-9.6-13.2h-6.7v-9.9H31.6v32h4.3c0,.2,0,.4,0,.7,0,3.9,3.2,7.1,7.1,7.1s7.1-3.2,7.1-7.1,0-.4,0-.7h21c0,.2,0,.4,0,.7,0,3.9,3.2,7.1,7.1,7.1s7.1-3.2,7.1-7.1,0-.4,0-.7h4.6v-8.9ZM43,67.4c-2.6,0-4.7-2.1-4.7-4.7s0-.5,0-.7c.3-2.3,2.3-4,4.7-4s4.3,1.8,4.7,4c0,.2,0,.4,0,.7,0,2.6-2.1,4.7-4.7,4.7ZM78.1,67.4c-2.6,0-4.7-2.1-4.7-4.7s0-.5,0-.7c.3-2.3,2.3-4,4.7-4s4.3,1.8,4.7,4c0,.2,0,.4,0,.7,0,2.6-2.1,4.7-4.7,4.7h0ZM74.2,53.8v-10.8h5l8.2,10.8h-13.2Z"/>
  <polygon class="st0" points="87.3 53.8 74.2 53.8 74.2 43 79.2 43 87.3 53.8"/>
  <path class="st1" d="M19.5,55.8c0,2.9,2.4,5.3,5.3,5.3s2.6-.5,3.5-1.3v5.3c-1.1.4-2.3.6-3.5.6-5.5,0-9.9-4.4-9.9-9.9v-12.8h13.4v8.8c-.9-.8-2.2-1.3-3.5-1.3-2.9,0-5.3,2.4-5.3,5.3Z"/>
  <rect class="st1" x="7.4" y="35.4" width="20.8" height="3.5" rx="1.7" ry="1.7"/>
  <rect class="st1" x="11.4" y="28.7" width="16.9" height="3.5" rx="1.7" ry="1.7"/>
  <path class="st1" d="M38.5,26.4v-1H9.1c-.9,0-1.7-.7-1.7-1.6h0c0-.9.7-1.6,1.7-1.6h5.6v-6.1c0-1.9,1.5-3.4,3.4-3.4h29.1c2.2,0,3.9,1.8,3.9,3.9v5.6h1.7c3.3,0,6.5,1.3,8.8,3.6l.6.6h-23.8Z"/>
</svg>