<?xml version="1.0" encoding="UTF-8"?>
<svg id="Capa_1" xmlns="http://www.w3.org/2000/svg" version="1.1" viewBox="0 0 90 90">
  <!-- Generator: Adobe Illustrator 29.0.0, SVG Export Plug-In . SVG Version: 2.1.0 Build 186)  -->
  <defs>
    <style>
      .st0 {
        fill: #217287;
      }

      .st1 {
        fill: #dbe5e8;
      }
    </style>
  </defs>
  <path class="st1" d="M5.3,16.9C.1,25.4.9,36.5,5,45.6c4.1,9.1,11,16.6,18,23.7,4.9,5,10.2,10.1,16.8,12.6s15,1.5,19.4-4c5.3-6.7,3.3-17.7,9.8-23.2,4.8-4.1,12.6-3.5,16.9-8.1,4.4-4.7,2.8-13-2-17.3s-11.6-5.7-18.1-6.1-13.1,0-19.3-2c-8.6-2.6-11.4-11.6-19.6-13.9s-17.3,2.8-21.4,9.5h-.2Z"/>
  <path class="st0" d="M58.2,39.1c0,0,0,.1,0,.2,0,.4-.3.7-.8.8,0,0-.1,0-.2,0s-.2,0-.2,0c-.4,0-.7-.4-.8-.8,0,0,0-.1,0-.2,0-.6.4-1,1-1s1,.4,1,1Z"/>
  <path class="st0" d="M57.2,36.5c0,0-.1,0-.2,0,0,0,.2,0,.3,0h0Z"/>
  <path class="st0" d="M71.3,39.1c0,.5-.4,1-1,1s-1-.4-1-1,.4-1,1-1,1,.4,1,1Z"/>
  <circle class="st0" cx="32.2" cy="24.2" r="1"/>
  <circle class="st0" cx="50.4" cy="24.2" r="1"/>
  <path class="st0" d="M59.3,16.5h-7c-2.1-6.7-6.7-9.3-10.3-9.4-3.7-.2-8.9,2.2-11.6,9.4h-7.7l-2.8,47.2h28.4v-.5l1.6-29.9v-1h10.4l-1-15.8ZM37.5,16.5c1.2-1.7,2.8-2.6,4.4-2.6s2.8,1,3.8,2.6h-8.2ZM50.4,28.1c-2.2,0-3.9-1.8-3.9-3.9s.7-2.6,1.8-3.3c0-1.3-.8-3.1-1.3-4.1-.6-1.2-1.3-2.2-2.2-2.9-.9-.7-1.8-1-2.9-1-2.2,0-4.4,1.4-5.9,3.9-.7,1.2-1.2,2.7-1.5,4.2,1,.7,1.7,1.9,1.7,3.2,0,2.2-1.8,3.9-3.9,3.9s-3.9-1.8-3.9-3.9.8-2.7,1.9-3.4c.5-1.1.7-2.4,1-3.5,2.3-6.6,6.8-9,10.2-9s.3,0,.4,0c3.3.1,7.6,2.6,9.5,9,.3,1,.3,2.2.6,3.3h0c1.4.6,2.4,2,2.4,3.6s-1.8,3.9-3.9,3.9Z"/>
  <path class="st0" d="M75.8,33.3h-24.9l-1.6,29.9v.5l-.2,3h28.7l-2-33.4ZM71.1,41.9c-2.3,4.9-4.8,7.4-7.3,7.4-3.6,0-6-4.4-7.3-7.4-1.1-.2-2-1.1-2.1-2.3,0-.2,0-.4,0-.6,0-1.8,1.2-2.9,2.9-2.9s2.9,1.2,2.9,2.9,0,.4,0,.6c-.1.8-.6,1.5-1.3,1.9.9,2,2.7,5.4,5.1,5.4h0c2.3,0,4.1-3.5,5-5.3-.9-.5-1.5-1.4-1.5-2.6,0-1.8,1.2-2.9,2.9-2.9s2.9,1.2,2.9,2.9-.8,2.4-2.1,2.8Z"/>
</svg>