<?xml version="1.0" encoding="UTF-8"?>
<svg id="Capa_2" data-name="Capa 2" xmlns="http://www.w3.org/2000/svg" viewBox="0 0 487.19 149.52">
  <defs>
    <style>
      .cls-1 {
        fill: #185d6e;
      }
    </style>
  </defs>
  <path class="cls-1" d="M110.14,40.95h-58.78c-14.7,0-26.88-11.7-27.14-26.4,0-.13,0-.26,0-.39h85.93s0,26.8,0,26.8Z"/>
  <path class="cls-1" d="M378.5,114.64v-45.83c0-11.46-9.1-20.95-20.54-21.16-.1,0-.2,0-.31,0v66.99s20.85,0,20.85,0Z"/>
  <path class="cls-1" d="M346.59,87.85v26.79h-20.88v-26.79c-.29-5.74-2.7-10.61-7.25-14.13-.36-.28-.71-.53-1.08-.78-5.96-3.96-13.92-3.96-19.9-.01-.37.25-.74.51-1.1.79-4.55,3.52-6.95,8.38-7.24,14.13v26.79h-20.89V47.65c.1,0,.2,0,.31.01,6.47.1,12.19,3.18,15.96,7.9,3.03-2.18,6.34-3.91,9.85-5.2.6-.23,1.2-.43,1.8-.62,7.29-2.33,15.21-2.33,22.5,0,.61.19,1.22.39,1.82.62,4.99,1.83,9.63,4.6,13.62,8.24,7.82,7.17,12.27,16.72,12.48,29.25Z"/>
  <path class="cls-1" d="M110.14,47.65v26.8h-34.37c-7.37.37-13.61,3.45-18.12,9.29-3.62,4.68-5.38,10.54-5.38,16.45v14.45s-28.06,0-28.06,0v-13.92c0-13.65,4.82-26.98,14.04-37.04,9.2-10.04,21.45-15.74,37.52-16.02h34.37Z"/>
  <path class="cls-1" d="M462.98,108.58v26.79h-20.88v-26.79c-.28-5.74-2.69-10.61-7.23-14.11-3.64-2.83-8.21-4.2-12.82-4.2h-11.26v24.33h-20.88V47.65h.31c11.46.2,20.58,9.69,20.58,21.15v-.39h10.85c10.63,0,21.02,3.76,28.87,10.94,7.82,7.17,12.26,16.72,12.48,29.23Z"/>
  <path class="cls-1" d="M204.66,114.64h20.89v-26.79c.29-5.74,2.69-10.61,7.24-14.12,3.65-2.82,8.21-4.19,12.83-4.19h11.27s0-21.87,0-21.87h-10.85c-10.64,0-21.03,3.76-28.88,10.94-7.83,7.17-12.27,16.72-12.49,29.25v26.79Z"/>
  <path class="cls-1" d="M196.33,47.65v26.93c-.22,12.59-4.69,22.19-12.56,29.4-3.99,3.66-8.65,6.44-13.69,8.28-.6.22-1.2.43-1.8.62-7.33,2.35-15.28,2.35-22.62,0-.61-.2-1.22-.41-1.83-.63-5.02-1.84-9.68-4.62-13.69-8.28-7.86-7.21-12.33-16.81-12.55-29.4v-26.93h20.98v26.93c.29,5.77,2.71,10.67,7.29,14.2.35.27.72.53,1.09.78,6,3.98,13.99,3.98,20,0,.38-.25.74-.51,1.1-.79,4.57-3.53,6.99-8.42,7.27-14.2v-26.93h21Z"/>
</svg>