<?xml version="1.0" encoding="UTF-8"?>
<svg id="Capa_1" xmlns="http://www.w3.org/2000/svg" version="1.1" viewBox="0 0 416 512">
  <!-- Generator: Adobe Illustrator 29.0.0, SVG Export Plug-In . SVG Version: 2.1.0 Build 186)  -->
  <defs>
    <style>
      .st0 {
        fill: #21758d;
      }
    </style>
  </defs>
  <path class="st0" d="M215,0C74.6,0,0,89.9,0,188s25.4,102.2,66.1,120.2c11.6,5.2,10.1-1.2,20.1-39.3.9-3.1.1-6.5-2.2-8.9-58.2-67.3-11.3-205.5,122.7-205.5,194,0,157.7,268.4,33.7,268.4s-55.8-25.1-48.2-56.1c9.1-37,27-76.7,27-103.4,0-67.2-100.1-57.2-100.1,31.8s9.7,46.1,9.7,46.1c0,0-32.2,130-38.2,154.3-10.1,41.1,1.4,107.7,2.4,113.5.6,3.2,4.2,4.2,6.1,1.6,3.2-4.2,42.1-59.7,53-99.8,4-14.6,20.2-73.9,20.2-73.9,10.7,19.4,41.7,35.6,74.6,35.6,98,0,168.9-86.2,168.9-193.1C415.6,76.7,327.9,0,215,0Z"/>
</svg>