<?xml version="1.0" encoding="UTF-8"?>
<svg id="Capa_1" xmlns="http://www.w3.org/2000/svg" version="1.1" viewBox="0 0 40 40">
  <!-- Generator: Adobe Illustrator 29.0.0, SVG Export Plug-In . SVG Version: 2.1.0 Build 186)  -->
  <defs>
    <style>
      .st0 {
        fill: #fff;
      }
    </style>
  </defs>
  <path class="st0" d="M35.6,10.3c0-.1-.2-.2-.4-.2H10.8l-.4-4.5c0-.3-.2-.5-.5-.5l-5.1.2c-.3,0-.5.2-.5.5,0,.3.2.5.5.5l4.7-.2.5,4.6,1.1,11.8c0,.3.2.5.5.5h1.1l.2,5.4c0,.2.2.5.4.5-.6.6-1,1.5-1,2.4,0,1.9,1.5,3.4,3.4,3.4s3.4-1.5,3.4-3.4-.4-1.8-1-2.4h8.8c-.6.6-1,1.5-1,2.4,0,1.9,1.5,3.4,3.4,3.4s3.4-1.5,3.4-3.4-1.5-3.4-3.3-3.4h-15.6l-.2-4.8h18.8c.2,0,.4-.2.5-.4l2.9-12c0-.1,0-.3,0-.4h0ZM31.6,31.4c0,1.3-1.1,2.4-2.4,2.4s-2.4-1.1-2.4-2.4,1.1-2.4,2.4-2.4,2.4,1.1,2.4,2.4ZM15.6,29c1.3,0,2.4,1.1,2.4,2.4s-1.1,2.4-2.4,2.4-2.4-1.1-2.4-2.4,1.1-2.4,2.4-2.4Z"/>
</svg>